<svg width="43" height="32" viewBox="0 0 43 32" fill="none" xmlns="http://www.w3.org/2000/svg"><g id="Frame 2" clip-path="url(#clip0_212_39767)"><g id="Group 39524"><path id="Ellipse 360" d="M33.1576 16.0587C33.1576 24.9274 26.0804 32.1169 17.3503 32.1169C8.62015 32.1169 1.54297 24.9274 1.54297 16.0587C1.54297 7.19 8.62015 0.000488281 17.3503 0.000488281C26.0804 0.000488281 33.1576 7.19 33.1576 16.0587ZM9.00877 16.0587C9.00877 20.7387 12.7434 24.5326 17.3503 24.5326C21.9572 24.5326 25.6918 20.7387 25.6918 16.0587C25.6918 11.3787 21.9572 7.58479 17.3503 7.58479C12.7434 7.58479 9.00877 11.3787 9.00877 16.0587Z" fill="#8F96DB"></path><path id="Ellipse 361" d="M41.7924 16.0582C41.7924 24.9269 34.7152 32.1165 25.9851 32.1165C17.2549 32.1165 10.1777 24.9269 10.1777 16.0582C10.1777 7.18951 17.2549 0 25.9851 0C34.7152 0 41.7924 7.18951 41.7924 16.0582ZM17.6435 16.0582C17.6435 20.7382 21.3782 24.5322 25.9851 24.5322C30.5919 24.5322 34.3266 20.7382 34.3266 16.0582C34.3266 11.3782 30.5919 7.5843 25.9851 7.5843C21.3782 7.5843 17.6435 11.3782 17.6435 16.0582Z" fill="#2C0466"></path><path id="Ellipse 362" d="M1.54356 16.0582C1.54356 13.7067 2.05195 11.3839 3.03279 9.25388C4.01363 7.1239 5.44298 5.23874 7.21985 3.73163C8.99672 2.22453 11.0777 1.13224 13.3158 0.531983C15.5539 -0.0682808 17.8945 -0.161874 20.1721 0.257815C22.4497 0.677503 24.6088 1.60023 26.4968 2.96079C28.3848 4.32135 29.9556 6.08653 31.0982 8.13161C32.2408 10.1767 32.9273 12.4517 33.1093 14.796C33.2912 17.1402 32.9642 19.4965 32.1512 21.6982L25.161 19.0344C25.59 17.8726 25.7626 16.6292 25.6666 15.3921C25.5706 14.1551 25.2083 12.9545 24.6053 11.8753C24.0024 10.7962 23.1735 9.86468 22.1772 9.14671C21.1809 8.42874 20.0415 7.94182 18.8396 7.72035C17.6377 7.49888 16.4026 7.54827 15.2216 7.86503C14.0405 8.18179 12.9424 8.75818 12.0047 9.55348C11.0671 10.3488 10.3128 11.3436 9.79523 12.4676C9.27764 13.5916 9.00936 14.8173 9.00936 16.0582L1.54356 16.0582Z" fill="#8F96DB"></path></g></g><defs><clipPath id="clip0_212_39767"><rect width="42" height="32" fill="white" transform="translate(0.667969)"></rect></clipPath></defs></svg>